<svg xmlns="http://www.w3.org/2000/svg" xmlns:xlink="http://www.w3.org/1999/xlink" viewBox=".5 638.49 207 318"><defs><g transform="translate(1180.1665,-900.18733)" id="g3222"><g transform="matrix(1,0,0,1.2235,2.35456,-14.94916)" id="g3140"><g transform="matrix(.28264,0,0,.32475,-31.8645,25.63594)" id="g32-9-7" style="fill:#cc0000;stroke:#000000;stroke-width:2.813;stroke-miterlimit:4;stroke-opacity:1;stroke-dasharray:none"><path d="m 280.84,122.81 c -3.69,-2.65 -8.11,-4.5 -9.83,-4.13 -1.71,.37 -3.27,6.33 -3.27,10.59 v 10.5 c 0,4.25 1.75,10.84 3.88,14.63 0,0 7.77,13.83 22.14,13.83 13.1,0 21.1,-11.26 21.1,-11.26 2.54,-3.58 1.6,-8.67 -2.09,-11.32 l -31.92,-22.85 z" id="path34-2-9" style="fill:#cc0000;stroke:#000000;stroke-width:2.813;stroke-miterlimit:4;stroke-opacity:1;stroke-dasharray:none"/><path d="m 280.84,122.81 c -3.69,-2.65 -8.11,-4.5 -9.83,-4.13 -1.71,.37 -3.27,6.33 -3.27,10.59 v 10.5 c 0,4.25 1.75,10.84 3.88,14.63 0,0 7.77,13.83 22.14,13.83 13.1,0 21.1,-11.26 21.1,-11.26 2.54,-3.58 1.6,-8.67 -2.09,-11.32 l -31.92,-22.85 z" id="path36-0-2" style="fill:#cc0000;stroke:#000000;stroke-width:2.813;stroke-miterlimit:4;stroke-opacity:1;stroke-dasharray:none"/></g><path d="M 57.32,51.94 47.89,44.18 c -.33,-.3 -1.63,-.14 -1.99,.08 -.89,.63 -1.23,1.15 -1.66,2.03 -.43,2.2 .98,2.98 1.08,3.16 l 11.16,9.19 c 1.02,.27 1.77,-.13 1.8,-1.53 V 54.72 C 58.28,54.08 58.5,53.16 57.32,51.94 z" id="path18-2-0" style="fill:#edd400;stroke:#000000;stroke-width:.852;stroke-miterlimit:4;stroke-opacity:1;stroke-dasharray:none"/><path d="m 50.92,42.45 c -.77,0 -1.52,.11 -2.21,.32 -.76,.28 -1.14,1.11 -.39,1.76 l 7.1,5.84 c 1.47,1.22 2.85,1.01 2.86,-1.08 V 49.18 C 58.28,45.47 54.98,42.45 50.92,42.45 z" id="path20-3-2" style="fill:#cc0000;stroke:#000000;stroke-width:.852;stroke-miterlimit:4;stroke-opacity:1;stroke-dasharray:none"/><g transform="matrix(.28264,0,0,.32475,-32.10432,26.03183)" id="g26-7-3" style="fill:#cc0000;stroke:#000000;stroke-width:2.813;stroke-miterlimit:4;stroke-opacity:1;stroke-dasharray:none"><path d="m 282.46,78.31 c -3.7,-2.64 -8.18,-5.05 -9.95,-5.36 -1.78,-.31 -4.77,5.2 -4.77,9.45 v 1.02 c 0,4.25 3.03,9.88 6.74,12.51 l 38.56,27.34 c 3.71,2.63 6.74,1.3 6.74,-2.96 v -7.63 c 0,-4.25 -3.02,-9.89 -6.72,-12.53 L 282.46,78.31 z" id="path28-5-7" style="fill:#cc0000;stroke:#000000;stroke-width:2.813;stroke-miterlimit:4;stroke-opacity:1;stroke-dasharray:none"/><path d="m 282.46,78.31 c -3.7,-2.64 -8.18,-5.05 -9.95,-5.36 -1.78,-.31 -4.77,5.2 -4.77,9.45 v 1.02 c 0,4.25 3.03,9.88 6.74,12.51 l 38.56,27.34 c 3.71,2.63 6.74,1.3 6.74,-2.96 v -7.63 c 0,-4.25 -3.02,-9.89 -6.72,-12.53 L 282.46,78.31 z" id="path30-9-5" style="fill:#cc0000;stroke:#000000;stroke-width:2.813;stroke-miterlimit:4;stroke-opacity:1;stroke-dasharray:none"/></g><g transform="matrix(.28264,0,0,.32475,-32.10432,26.03183)" id="g38-3-9" style="fill:#edd400;stroke:#000000;stroke-width:2.813;stroke-miterlimit:4;stroke-opacity:1;stroke-dasharray:none"><path d="m 280.8,100.42 c -3.71,-2.63 -8.16,-4.9 -9.9,-5.05 -1.74,-.15 -3.16,6.13 -3.16,10.36 0,4.24 3.02,9.86 6.71,12.5 l 38.31,27.43 c 3.69,2.64 6.78,4.37 6.86,3.83 .08,-.54 .15,-5.46 .15,-9.72 v -3.98 c 0,-4.25 -3.03,-9.89 -6.74,-12.51 l -32.23,-22.86 z" id="path40-6-2" style="fill:#edd400;stroke:#000000;stroke-width:2.813;stroke-miterlimit:4;stroke-opacity:1;stroke-dasharray:none"/><path d="m 280.8,100.42 c -3.71,-2.63 -8.16,-4.9 -9.9,-5.05 -1.74,-.15 -3.16,6.13 -3.16,10.36 0,4.24 3.02,9.86 6.71,12.5 l 38.31,27.43 c 3.69,2.64 6.78,4.37 6.86,3.83 .08,-.54 .15,-5.46 .15,-9.72 v -3.98 c 0,-4.25 -3.03,-9.89 -6.74,-12.51 l -32.23,-22.86 z" id="path42-1-2" style="fill:#edd400;stroke:#000000;stroke-width:2.813;stroke-miterlimit:4;stroke-opacity:1;stroke-dasharray:none"/></g></g><g transform="matrix(.31639,0,0,.32419,-39.32602,21.04579)" id="g62-2-8" style="fill:#edd400;stroke:#000000;stroke-opacity:1"><g id="g64-2-9" style="fill:#edd400;stroke:#000000;stroke-opacity:1"><path d="m 292.72,51.51 c -6.94,0 -12.59,-5.66 -12.59,-12.62 0,-6.96 5.65,-12.62 12.59,-12.62 6.94,0 12.59,5.66 12.59,12.62 0,6.96 -5.65,12.62 -12.59,12.62 l 0,0 z" id="path66-8-7" style="fill:#edd400;stroke:#000000;stroke-opacity:1"/><path d="m 292.72,28 c 5.99,0 10.85,4.88 10.85,10.89 0,6 -4.87,10.88 -10.85,10.88 -5.99,0 -10.86,-4.88 -10.86,-10.88 0,-6 4.87,-10.89 10.86,-10.89" id="path3942-9-3" style="fill:#edd400;stroke:#000000;stroke-opacity:1"/><path d="m 292.72,24.54 c -7.9,0 -14.33,6.44 -14.33,14.36 0,7.92 6.43,14.35 14.33,14.35 7.9,0 14.32,-6.44 14.32,-14.35 0,-7.92 -6.43,-14.36 -14.32,-14.36 l 0,0 z" id="path68-7-6" style="fill:#edd400;stroke:#000000;stroke-width:2.813;stroke-miterlimit:4;stroke-opacity:1;stroke-dasharray:none"/></g></g><g transform="matrix(.28264,0,0,.43187,-29.74976,11.07342)" id="g8-2-1" style="fill:#729fcf;fill-opacity:1;stroke:#000000;stroke-width:2.813;stroke-miterlimit:4;stroke-opacity:1;stroke-dasharray:none"><g id="g3852-2"><path d="m 293.95,643.54 c -3.78,-5.02 -26.89,-18.48 -26.89,-34.73 0,-23.9 .2,-435.33 .2,-439.27 0,-1.15 1.03,-2.09 2.31,-2.09 l 24.87,0" id="path3841-9" style="fill:#729fcf;fill-opacity:1;stroke:#000000;stroke-width:2.813;stroke-linecap:round;stroke-miterlimit:4;stroke-opacity:1;stroke-dasharray:none"/><path d="m 293.9,643.51 c 3.78,-5.02 26.89,-17.47 26.89,-34.7 0,-23.9 -.2,-435.37 -.2,-439.3 0,-1.15 -1.03,-2.09 -2.31,-2.09 l -24.87,0" id="path3850-3" style="fill:#3465a4;fill-opacity:1;stroke:#000000;stroke-width:2.813;stroke-linecap:round;stroke-miterlimit:4;stroke-opacity:1;stroke-dasharray:none"/></g></g><g transform="matrix(.79515,0,0,.79515,-29.64745,3.63208)" id="g3980-9-1"><g transform="matrix(.35546,0,0,.35546,-.12867,40.7784)" id="g44-3-9"><g id="g46-1-4"><g id="g48-9-7"><path d="m 351.9,206.17 c -6.63,0 -12.03,-5.21 -12.03,-11.61 v -18.37 l -.51,.01 c -2.74,.07 -5.13,.12 -5.7,.14 -14.71,.44 -37.52,18.64 -38.62,19.53 -.56,.5 -1.29,.78 -2.07,.78 -.75,0 -1.49,-.26 -2.09,-.74 -.24,-.2 -23.66,-19.12 -38.66,-19.57 -.62,-.02 -3.27,-.08 -6.21,-.15 v 18.38 c 0,6.4 -5.39,11.61 -12.02,11.61 -6.63,0 -12.03,-5.21 -12.03,-11.61 v -17.82 h -11.96 c -5.89,0 -10.68,-4.79 -10.68,-10.69 0,-5.89 4.79,-10.68 10.68,-10.68 h 11.96 v -18.95 c 0,-6.64 5.4,-12.04 12.03,-12.04 6.63,0 12.02,5.4 12.02,12.04 v 19.29 c .69,0 1.46,0 2.33,0 14.87,0 42.09,-25.51 42.37,-25.77 l .13,-.12 c .56,-.51 1.29,-.8 2.05,-.8 .83,0 1.66,.33 2.28,.92 9.47,8.92 30.52,25.77 42.37,25.77 .87,0 1.64,0 2.33,0 v -19.29 c 0,-6.64 5.4,-12.04 12.03,-12.04 6.63,0 12.03,5.4 12.03,12.04 v 18.95 h 11.96 c 5.89,0 10.68,4.79 10.68,10.68 0,5.89 -4.79,10.69 -10.68,10.69 h -11.96 v 17.82 c 0,6.4 -5.4,11.61 -12.03,11.61 l 0,0 z" id="path50-4-8" style="fill:#fcef3c"/><path d="m 351.9,126.12 c 5.68,0 10.29,4.62 10.29,10.3 v 20.68 h 13.69 c 4.93,0 8.94,4.02 8.94,8.95 0,4.93 -4.01,8.95 -8.94,8.95 h -13.69 v 19.56 c 0,5.44 -4.62,9.87 -10.3,9.87 -5.67,0 -10.29,-4.43 -10.29,-9.87 v -20.15 c -3.6,.09 -7.26,.17 -7.99,.19 -15.56,.47 -38.72,19.15 -39.7,19.95 -.26,.24 -.59,.36 -.93,.36 -.35,0 -.71,-.13 -1,-.36 -.98,-.8 -24.14,-19.48 -39.7,-19.95 -.74,-.02 -4.4,-.11 -8,-.19 v 20.15 c 0,5.44 -4.62,9.87 -10.29,9.87 -5.68,0 -10.29,-4.43 -10.29,-9.87 v -19.56 h -13.69 c -4.93,0 -8.95,-4.01 -8.95,-8.95 0,-4.93 4.02,-8.95 8.95,-8.95 h 13.69 v -20.68 c 0,-5.68 4.62,-10.3 10.29,-10.3 5.67,0 10.29,4.62 10.29,10.3 v 21.01 c 1.04,.01 2.37,.01 4.06,.01 15.47,0 42.42,-25.17 43.55,-26.24 l .12,-.11 c .25,-.23 .56,-.34 .88,-.34 .39,0 .79,.16 1.1,.45 1.14,1.07 28.08,26.24 43.56,26.24 1.7,0 3.02,-.01 4.06,-.01 v -21.01 c 0,-5.69 4.62,-10.31 10.29,-10.31" id="path3934-7-4" style="fill:#313131"/><path d="m 351.9,122.65 c -7.59,0 -13.76,6.18 -13.76,13.77 v 17.55 c -.19,0 -.39,0 -.59,0 -11.29,0 -31.87,-16.55 -41.18,-25.3 -.96,-.9 -2.19,-1.39 -3.47,-1.39 -1.21,0 -2.37,.45 -3.25,1.27 l -.11,.1 c -9.33,8.77 -29.91,25.32 -41.2,25.32 -.2,0 -.4,0 -.59,0 v -17.55 c 0,-7.59 -6.17,-13.77 -13.76,-13.77 -7.59,0 -13.77,6.18 -13.77,13.77 v 17.21 h -10.22 c -6.84,0 -12.41,5.57 -12.41,12.42 0,6.85 5.57,12.42 12.41,12.42 h 10.22 v 16.09 c 0,7.36 6.17,13.34 13.77,13.34 7.59,0 13.76,-5.99 13.76,-13.34 v -16.6 c 2.17,.05 3.93,.1 4.42,.11 14.46,.43 37.39,18.98 37.62,19.17 .92,.74 2.05,1.14 3.19,1.14 1.18,0 2.31,-.42 3.19,-1.19 8,-6.49 26.04,-18.77 37.55,-19.12 .49,-.02 2.25,-.06 4.42,-.11 v 16.6 c 0,7.36 6.17,13.34 13.76,13.34 7.59,0 13.77,-5.98 13.77,-13.34 v -16.09 h 10.22 c 6.85,0 12.41,-5.57 12.41,-12.42 0,-6.85 -5.57,-12.42 -12.41,-12.42 H 365.66 v -17.21 c 0,-7.59 -6.17,-13.77 -13.76,-13.77 l 0,0 z" id="path52-8-5" style="fill:#edd400;stroke:#000000;stroke-width:2.813;stroke-miterlimit:4;stroke-opacity:1;stroke-dasharray:none"/></g></g></g><g transform="matrix(.35546,0,0,.35546,-.12867,40.7784)" id="g54-4-0" style="fill:#cc0000;stroke:#000000;stroke-width:2.813;stroke-miterlimit:4;stroke-opacity:1;stroke-dasharray:none"><g id="g56-5-3" style="fill:#cc0000;stroke:#000000;stroke-width:2.813;stroke-miterlimit:4;stroke-opacity:1;stroke-dasharray:none"><path d="m 293.1,180.98 c -8.84,0 -16.03,-7.21 -16.03,-16.07 0,-8.86 7.19,-16.06 16.03,-16.06 8.84,0 16.02,7.2 16.02,16.06 0,8.86 -7.19,16.07 -16.02,16.07 l 0,0 z" id="path58-0-6" style="fill:#cc0000;stroke:#000000;stroke-width:2.813;stroke-miterlimit:4;stroke-opacity:1;stroke-dasharray:none"/><path d="m 293.11,150.58 c 7.88,0 14.29,6.43 14.29,14.33 0,7.9 -6.41,14.33 -14.29,14.33 -7.88,0 -14.29,-6.43 -14.29,-14.33 0,-7.9 6.41,-14.33 14.29,-14.33" id="path3938-3-1" style="fill:#cc0000;stroke:#000000;stroke-width:2.813;stroke-miterlimit:4;stroke-opacity:1;stroke-dasharray:none"/><path d="m 293.11,147.11 c -9.79,0 -17.76,7.98 -17.76,17.8 0,9.81 7.97,17.8 17.76,17.8 9.79,0 17.76,-7.99 17.76,-17.8 0,-9.81 -7.96,-17.8 -17.76,-17.8 l 0,0 z" id="path60-6-0" style="fill:#cc0000;stroke:#000000;stroke-width:2.813;stroke-miterlimit:4;stroke-opacity:1;stroke-dasharray:none"/></g></g></g></g><g id="g3152"><use transform="matrix(.99997,0,0,1,-1083.932,79.99763)" id="use7961" x="0" y="0" width="2485" height="1592" xlink:href="#text7873"/><use transform="matrix(-.99997,0,0,-1,1291.932,-840.27329)" id="use7963" x="0" y="0" width="2485" height="1592" xlink:href="#text7873"/></g><g transform="matrix(1.22413,0,0,1.22413,-149.48071,110.11532)" id="text7873" style=""><path d="m 1024.93,-578.6 c -.23,0 -.7,.14 -1.39,.43 l 0,-.27 3.48,-1.76 .15,.04 0,11.6 c 0,.46 .12,.77 .35,.91 .23,.14 .73,.22 1.49,.23 l 0,.29 -5.34,0 0,-.29 c .72,-.03 1.21,-.13 1.45,-.31 .26,-.19 .39,-.59 .39,-1.2 l 0,-8.76 c 0,-.61 -.19,-.91 -.58,-.91" id="path7939" style=""/></g><path d="m 738.9,-856.64 35.6,0 0,289 -35.6,0 m -35.6,0 -35.6,0 m -35.6,0 -35.6,0 0,-289 35.6,0 m 35.6,0 35.6,0" id="frame_espadas" style="fill:none;stroke:#000000;stroke-opacity:1"/><g id="card_body"/><linearGradient x1="135.067" y1="-723.179" x2="-384.797" y2="-723.179" id="linearGradient4973" xlink:href="#linearGradient3293" gradientUnits="userSpaceOnUse"/><linearGradient id="linearGradient3293"><stop id="stop3295" style="stop-color:#ffffff;stop-opacity:1" offset="0"/><stop id="stop3297" style="stop-color:#cccccc;stop-opacity:1" offset="1"/></linearGradient></defs><g transform="matrix(1,0,0,1,.00005,541.62505)"><g id="1_spade"><use transform="translate(0,968.00003)" id="use7480" x="0" y="0" width="2496" height="1595" xlink:href="#card_body"/><use transform="translate(-581.5,968.00003)" id="use7620" x="0" y="0" width="2496" height="1595" xlink:href="#frame_espadas"/><use transform="translate(0,636.00004)" id="use3170" x="0" y="0" width="2485" height="1592" xlink:href="#g3152"/><use transform="matrix(.86603,-.5,.5,.86603,-593.73144,1512.3668)" id="use3881" x="0" y="0" width="2485" height="1592" xlink:href="#g3222"/></g></g></svg>